<svg class="icon" viewBox="0 0 1024 1024" xmlns="http://www.w3.org/2000/svg" width="200" height="200"><defs><style/></defs><path d="M797.401 309.152L594.553 512l202.848 202.848 82.272-82.272q16.576-17.728 40-8 22.272 9.728 22.272 33.728v256q0 14.848-10.848 25.728T905.37 950.88h-256q-24 0-33.728-22.848-9.728-22.272 8-39.424l82.272-82.272-202.848-202.848-202.848 202.848 82.272 82.272q17.728 17.152 8 39.424-9.728 22.848-33.728 22.848h-256q-14.848 0-25.728-10.848t-10.848-25.728v-256q0-24 22.848-33.728 22.272-9.728 39.424 8l82.272 82.272L411.577 512 208.73 309.152l-82.272 82.272q-10.848 10.848-25.728 10.848-6.848 0-13.728-2.848-22.848-9.728-22.848-33.728v-256q0-14.848 10.848-25.728T100.73 73.12h256q24 0 33.728 22.848 9.728 22.272-8 39.424l-82.272 82.272 202.848 202.848 202.848-202.848-82.272-82.272q-17.728-17.152-8-39.424 9.728-22.848 33.728-22.848h256q14.848 0 25.728 10.848t10.848 25.728v256q0 24-22.272 33.728-7.424 2.848-14.272 2.848-14.848 0-25.728-10.848z"/></svg>