<svg class="icon" viewBox="0 0 1024 1024" xmlns="http://www.w3.org/2000/svg" width="200" height="200"><defs><style/></defs><path d="M893.1 448.2h-763c-35.2 0-63.9 28.8-63.9 63.9 0 35.2 28.8 63.9 63.9 63.9h763c35.2 0 63.9-28.8 63.9-63.9 0-35.1-28.8-63.9-63.9-63.9zm-.3 287.7h-763c-35.2 0-63.9 28.8-63.9 63.9 0 35.2 28.8 63.9 63.9 63.9h763c35.2 0 63.9-28.8 63.9-63.9 0-35.2-28.7-63.9-63.9-63.9zm1-572.5h-763c-35.2 0-63.9 28.8-63.9 63.9 0 35.2 28.8 63.9 63.9 63.9h763c35.2 0 63.9-28.8 63.9-63.9 0-35.2-28.8-63.9-63.9-63.9z"/></svg>