<svg class="icon" viewBox="0 0 1024 1024" xmlns="http://www.w3.org/2000/svg" width="200" height="200"><defs><style/></defs><path d="M657.714 548.571h180.572q-.572-1.714-1.429-4.571t-1.428-4.571L714.286 256H309.714L188.571 539.429Q188 540.57 187.143 544t-1.429 4.571h180.572l54.285 109.715H603.43zm293.143 17.143v275.429q0 14.857-10.857 25.714t-25.714 10.857H109.714q-14.857 0-25.714-10.857t-10.857-25.714V565.714q0-35.428 14.286-70.285l136-315.429q5.714-14.286 20.857-24t30-9.714h475.428q14.857 0 30 9.714t20.857 24l136 315.429q14.286 34.857 14.286 70.285z"/></svg>