<svg class="icon" viewBox="0 0 1024 1024" xmlns="http://www.w3.org/2000/svg" width="200" height="200"><defs><style/></defs><path d="M510.72 880.64c-188.8 0-343.04-153.6-343.04-343.04 0-118.4 59.52-226.56 160-289.92 14.72-9.6 34.56-5.12 44.16 10.24 9.6 14.72 5.12 34.56-10.24 44.16-81.28 51.2-129.92 139.52-129.92 235.52 0 153.6 124.8 279.04 279.04 279.04s278.4-125.44 278.4-279.04c0-96-48.64-184.32-129.92-235.52-14.72-9.6-19.2-29.44-10.24-44.16 9.6-14.72 29.44-19.2 44.16-10.24 100.48 63.36 160 171.52 160 289.92 0 188.8-153.6 343.04-342.4 343.04z"/><path d="M510.72 518.4c-17.92 0-32-14.08-32-32V181.76c0-17.92 14.08-32 32-32s32 14.08 32 32V486.4c0 17.92-14.72 32-32 32z"/></svg>